# xmcd
#
# Track frame offsets: 
#        150
#        9829
#        22433
#        33939
#        54735
#        65503
#        80503
#        100226
#        108309
#        116636
#        128663
#        140193
#        157269
#        165894
#        176181
#
# Disc length: 2520 seconds
#
# Revision: 0
# Processed by: cddbd v1.5.2PL0 Copyright (c) Steve Scherf et al.
# Submitted via: ExactAudioCopyFreeDBPlugin 1.0
#
DISCID=ce09d60f
DTITLE=Johnny Cash - American Outtakes
DYEAR=1900
DGENRE=Country
TTITLE0=What On Earth (Will You Do For Heaven's Sake)
TTITLE1=The Drifter
TTITLE2=I Witnessed A Crime (feat. Billy Gibbons)
TTITLE3=The Banks Of The Ohio
TTITLE4=The Next Time I'm In Town
TTITLE5=Breaking Bread
TTITLE6=To Beat The Devil
TTITLE7=Friends In California
TTITLE8=The Caretaker
TTITLE9=The Wonder Of You
TTITLE10=East Virginia Blues (I Don't Want Your Greenback Dollar) 
TTITLE11=Bury Me Not|Cowboy's Prayer
TTITLE12=Old Chunk Of Coal
TTITLE13=Go On Blues
TTITLE14=If I Give You My Soul (Flesh And Blood)
EXTD=
EXTT0=
EXTT1=
EXTT2=
EXTT3=
EXTT4=
EXTT5=
EXTT6=
EXTT7=
EXTT8=
EXTT9=
EXTT10=
EXTT11=
EXTT12=
EXTT13=
EXTT14=
PLAYORDER=
